<?xml version="1.0"?>
<svg xmlns="http://www.w3.org/2000/svg" id="Icons" viewBox="0 0 74 74" width="512px" height="512px"><path d="M60.375,25.313H7.25A5.256,5.256,0,0,1,2,20.063V8.375a5.256,5.256,0,0,1,5.25-5.25H60.375a5.256,5.256,0,0,1,5.25,5.25V20.063A5.256,5.256,0,0,1,60.375,25.313ZM7.25,5.125A3.254,3.254,0,0,0,4,8.375V20.063a3.254,3.254,0,0,0,3.25,3.25H60.375a3.254,3.254,0,0,0,3.25-3.25V8.375a3.254,3.254,0,0,0-3.25-3.25Z" fill="#303236"/><path d="M34.813,40.25h-2V37.063a5.256,5.256,0,0,1,5.25-5.25h29.75A2.19,2.19,0,0,0,70,29.625V17.406a2.19,2.19,0,0,0-2.187-2.187H64.625v-2h3.188A4.192,4.192,0,0,1,72,17.406V29.625a4.192,4.192,0,0,1-4.187,4.188H38.063a3.254,3.254,0,0,0-3.25,3.25Z" fill="#303236"/><path d="M38.063,71h-8.5a3.129,3.129,0,0,1-3.125-3.125v-25.5a3.129,3.129,0,0,1,3.125-3.125h8.5a3.129,3.129,0,0,1,3.125,3.125v25.5A3.129,3.129,0,0,1,38.063,71Zm-8.5-29.75a1.127,1.127,0,0,0-1.125,1.125v25.5A1.127,1.127,0,0,0,29.563,69h8.5a1.127,1.127,0,0,0,1.125-1.125v-25.5a1.127,1.127,0,0,0-1.125-1.125Z" fill="#303236"/></svg>
