<?xml version="1.0"?>
<svg xmlns="http://www.w3.org/2000/svg" height="512px" viewBox="-33 0 512 512.00004" width="512px"><path d="m437.847656 417.507812h-64.90625v-71.996093c0-4.140625-3.359375-7.5-7.5-7.5h-111.851562v-115.339844c0-4.140625-3.355469-7.5-7.5-7.5-4.140625 0-7.5 3.359375-7.5 7.5v115.339844h-64.492188v-183.84375h64.492188v38.503906c0 4.140625 3.359375 7.5 7.5 7.5 4.144531 0 7.5-3.359375 7.5-7.5v-46.003906c0-4.144531-3.355469-7.5-7.5-7.5h-238.589844c-4.144531 0-7.5 3.355469-7.5 7.5.00390625 7.085937.0976562 220.0625.109375 251.660156 0 4.144531 3.359375 7.5 7.5 7.5 4.144531 0 7.5-3.355469 7.5-7.5v-85.171875h64.492187v183.84375h-64.492187v-68.671875c0-4.144531-3.355469-7.5-7.5-7.5-4.140625 0-7.5 3.355469-7.5 7.5v76.171875c0 4.144531 3.359375 7.5 7.5 7.5h430.238281c4.144532 0 7.5-3.355469 7.5-7.5v-79.492188c0-4.144531-3.355468-7.5-7.5-7.5zm-79.90625-64.496093v64.496093h-183.84375v-64.496093zm-263.339844 64.496093v-183.84375h64.496094v183.84375zm-79.601562-263.339843h144.097656v64.496093h-144.097656zm0 143.988281v-64.492188h64.605469v64.492188zm79.601562 134.351562h183.847657v64.492188h-183.847657zm335.746094 64.492188h-136.898437v-64.492188h136.898437zm0 0" fill="#303236"/><path d="m437.847656 0h-198.84375c-4.140625 0-7.5 3.355469-7.5 7.5v79.492188c0 4.144531 3.359375 7.5 7.5 7.5h111.851563v191.34375c0 4.144531 3.355469 7.5 7.5 7.5h79.492187c4.144532 0 7.5-3.355469 7.5-7.5v-278.335938c0-4.144531-3.355468-7.5-7.5-7.5zm-191.34375 15h183.84375v64.492188h-183.84375zm183.84375 263.335938h-64.492187v-183.84375h64.492187zm0 0" fill="#303236"/></svg>
